<svg viewBox="0 0 16 16">
  <path fill="none" fill-rule="evenodd" d="M15.4989.5008c-1.5672.0146-2.855.2356-3.8622.6565-1.0445.4367-2.1625 1.2429-3.3448 2.4194-.5133.5202-1.0796 1.148-1.6975 1.8825l-.1396.166-.2166.0114-3.6117.1896L.5517 9.3847l.4475.4475 2.884-.889 3.1792 3.181-.0885.2877-.8002 2.5982.4457.4483 3.5564-2.0733.2023-3.8334.1657-.1396c.7365-.621 1.3635-1.1872 1.878-1.6957 1.1196-1.1267 1.9104-2.252 2.3767-3.3738.4475-1.0768.6823-2.3568.7004-3.8418zM.9032 9.8618a.397.397 0 00-.0122.0038l.0122-.0038zm12.3206-6.2654c0 .2432-.0911.4648-.2629.637-.1718.1718-.3936.2633-.637.2633-.2435 0-.4652-.0915-.637-.2634-.1718-.1719-.2631-.3935-.2631-.6369s.0913-.465.2631-.6369c.1718-.172.3935-.2633.637-.2633.2433 0 .4652.0914.6373.2636.1715.1719.2626.3934.2626.6366z"/>
</svg>